<?xml version="1.0" encoding="utf-8"?>
<!-- Generator: Adobe Illustrator 17.0.0, SVG Export Plug-In . SVG Version: 6.00 Build 0)  -->
<!DOCTYPE svg PUBLIC "-//W3C//DTD SVG 1.1//EN" "http://www.w3.org/Graphics/SVG/1.1/DTD/svg11.dtd">
<svg version="1.1" id="Layer_1" xmlns="http://www.w3.org/2000/svg" xmlns:xlink="http://www.w3.org/1999/xlink" x="0px" y="0px"
	 width="2000px" height="1500px" viewBox="0 0 2000 1500" enable-background="new 0 0 2000 1500" xml:space="preserve">
<g>
	<g opacity="0.9">
		<g>
			<circle fill="#4AE08C" cx="1521.338" cy="750.174" r="11.83"/>
		</g>
		<g>
			<circle fill="#4AE08C" cx="1306.341" cy="739.904" r="11.83"/>
		</g>
		<g>
			<circle fill="#4AE08C" cx="730.896" cy="753.432" r="11.845"/>
		</g>
		<g>
			<circle fill="#4AE08C" cx="439.922" cy="755.593" r="9.856"/>
		</g>
		<g>
			<rect x="324.23" y="753.302" fill="#4AE08C" width="115.692" height="2.568"/>
		</g>
		<g>
			<circle fill="#4AE08C" cx="-71.781" cy="710.174" r="11.83"/>
		</g>
		<g>
			<polygon fill="#4AE08C" points="30.999,132.049 -76.333,132.049 -76.333,28.117 -73.766,28.117 -73.766,129.481 28.431,129.481 
				28.431,61.755 103.565,61.755 103.565,12.781 106.132,12.781 106.132,64.322 30.999,64.322 			"/>
		</g>
		<g>
			<polygon fill="#4AE08C" points="179.982,501.371 137.428,501.371 137.428,356.394 23.14,356.394 23.14,258.585 99.332,258.585 
				99.332,199.775 57.004,199.775 57.004,44.824 141.66,44.824 141.66,15.66 144.228,15.66 144.228,47.392 59.571,47.392 
				59.571,197.208 101.9,197.208 101.9,261.153 25.708,261.153 25.708,353.826 139.996,353.826 139.996,498.803 179.982,498.803 			
				"/>
		</g>
		<g>
			<polygon fill="#4AE08C" points="-45.68,292.123 -76.333,292.123 -76.333,233.172 57.004,233.172 57.004,199.775 23.14,199.775 
				23.14,175.18 -79.092,175.18 -79.092,172.612 25.708,172.612 25.708,197.208 59.571,197.208 59.571,235.74 -73.766,235.74 
				-73.766,289.555 -45.68,289.555 			"/>
		</g>
		<g>
			<polygon fill="#4AE08C" points="106.132,381.918 46.901,381.918 46.901,379.35 103.565,379.35 103.565,298.605 221.726,298.605 
				221.726,169.189 257.227,133.689 257.227,35.376 259.795,35.376 259.795,134.752 224.294,170.252 224.294,301.172 
				106.132,301.172 			"/>
		</g>
		<g>
			<circle fill="#4AE08C" cx="58.677" cy="196.115" r="7.657"/>
		</g>
		<g>
			<circle fill="#4AE08C" cx="47.398" cy="381.33" r="10.459"/>
		</g>
		<g>
			<circle fill="#4AE08C" cx="-121.259" cy="290.323" r="9.524"/>
		</g>
		<g>
			<circle fill="#4AE08C" cx="104.849" cy="46.306" r="6.319"/>
		</g>
		<g>
			<circle fill="#4AE08C" cx="-75.05" cy="26.119" r="16.656"/>
		</g>
		<g>
			<circle fill="#4AE08C" cx="296.708" cy="239.367" r="16.656"/>
		</g>
		<g>
			<polygon fill="#4AE08C" points="-14.858,637.882 -75.403,637.882 -75.403,635.314 -17.426,635.314 -17.426,561.236 
				93.299,561.236 93.299,445.284 -122.543,445.284 -122.543,284.56 -119.976,284.56 -119.976,442.716 95.867,442.716 
				95.867,563.804 -14.858,563.804 			"/>
		</g>
		<g>
			<circle fill="#4AE08C" cx="62.204" cy="562.521" r="7.657"/>
		</g>
		<g>
			<circle fill="#4AE08C" cx="-75.05" cy="636.597" r="7.937"/>
		</g>
		<g>
			<circle fill="#4AE08C" cx="-13.339" cy="742.337" r="7.937"/>
		</g>
		<g>
			<circle fill="#4AE08C" cx="179.983" cy="500.086" r="10.459"/>
		</g>
		<g>
			<circle fill="#4AE08C" cx="235.984" cy="739.815" r="11.792"/>
		</g>
		<g>
			<polygon fill="#4AE08C" points="153.99,813.319 -14.622,813.319 -14.622,739.815 -12.055,739.815 -12.055,810.752 
				151.422,810.752 151.422,585.727 312.08,585.727 312.08,444.118 206.98,444.118 206.98,238.084 299.889,238.084 299.889,240.652 
				209.548,240.652 209.548,441.55 314.648,441.55 314.648,588.294 153.99,588.294 			"/>
		</g>
		<g>
			<circle fill="#4AE08C" cx="152.129" cy="739.815" r="10.459"/>
		</g>
		<g>
			<polygon fill="#4AE08C" points="271.53,645.818 102.203,645.818 102.203,643.25 268.962,643.25 268.962,362.048 376.758,362.048 
				376.758,108.599 130.111,108.599 130.111,106.031 379.325,106.031 379.325,364.616 271.53,364.616 			"/>
		</g>
		<g>
			<circle fill="#4AE08C" cx="98.53" cy="644.534" r="9.524"/>
		</g>
		<g>
			<circle fill="#4AE08C" cx="-79.092" cy="173.897" r="11.623"/>
		</g>
		<g>
			<circle fill="#4AE08C" cx="258.51" cy="39.987" r="9.524"/>
		</g>
		<g>
			<circle fill="#4AE08C" cx="132.146" cy="105.2" r="11.83"/>
		</g>
		<g>
			<polygon fill="#4AE08C" points="370.452,707.018 280.052,707.018 280.052,704.45 367.884,704.45 367.884,494.149 
				433.379,428.654 433.379,314.77 323.196,314.77 323.196,312.203 435.946,312.203 435.946,429.717 370.452,495.212 			"/>
		</g>
		<g>
			<circle fill="#4AE08C" cx="322.888" cy="313.486" r="9.524"/>
		</g>
		<g>
			<circle fill="#4AE08C" cx="483.739" cy="765.618" r="11.845"/>
		</g>
		<g>
			<circle fill="#4AE08C" cx="280.052" cy="705.734" r="7.657"/>
		</g>
		<g>
			<circle fill="#4AE08C" cx="-49.16" cy="290.839" r="7.657"/>
		</g>
		<g>
			<polygon fill="#4AE08C" points="548.471,640.527 433.379,640.527 433.379,545.815 212.787,545.815 212.787,543.248 
				435.946,543.248 435.946,637.96 545.904,637.96 545.904,453.807 618.916,380.794 618.916,225.835 433.379,225.835 
				433.379,37.811 435.946,37.811 435.946,223.268 621.484,223.268 621.484,381.857 548.471,454.87 			"/>
		</g>
		<g>
			<circle fill="#4AE08C" cx="434.662" cy="37.81" r="14.77"/>
		</g>
		<g>
			<circle fill="#4AE08C" cx="735.198" cy="702.928" r="14.77"/>
		</g>
		<g>
			<circle fill="#4AE08C" cx="212.788" cy="-7.862" r="13.693"/>
		</g>
		<g>
			<circle fill="#4AE08C" cx="547.187" cy="454.338" r="7.657"/>
		</g>
		<g>
			<circle fill="#4AE08C" cx="747.088" cy="392.961" r="7.657"/>
		</g>
		<g>
			<circle fill="#4AE08C" cx="774.713" cy="763.457" r="9.856"/>
		</g>
		<g>
			<polygon fill="#4AE08C" points="484.977,768.874 482.41,768.874 482.41,568.894 677.122,568.894 677.122,324.293 
				585.058,324.293 585.058,282.083 538.246,282.083 538.246,92.085 595.865,92.085 595.865,94.652 540.814,94.652 540.814,279.515 
				587.625,279.515 587.625,321.726 679.69,321.726 679.69,571.462 484.977,571.462 			"/>
		</g>
		<g>
			<circle fill="#4AE08C" cx="595.547" cy="93.37" r="9.524"/>
		</g>
		<g>
			<circle fill="#4AE08C" cx="595.547" cy="16.225" r="9.524"/>
		</g>
		<g>
			<circle fill="#4AE08C" cx="620.2" cy="320.893" r="10.459"/>
		</g>
		<g>
			<polygon fill="#4AE08C" points="621.484,699.362 424.786,699.362 424.786,696.795 618.916,696.795 618.916,488.344 
				798.819,488.344 798.819,169.44 505.338,169.44 505.338,-19.47 507.906,-19.47 507.906,166.872 801.387,166.872 801.387,490.912 
				621.484,490.912 			"/>
		</g>
		<g>
			<polygon fill="#4AE08C" points="737.893,705.734 735.325,705.734 735.325,553.581 966.019,553.581 966.019,381.037 
				857.421,272.439 729.681,272.439 729.681,16.944 595.547,16.944 595.547,14.376 732.248,14.376 732.248,269.871 858.484,269.871 
				968.587,379.974 968.587,556.149 737.893,556.149 			"/>
		</g>
		<g>
			<polygon fill="#4AE08C" points="891.688,765.617 889.12,765.617 889.12,393.073 743.665,393.073 743.665,390.506 
				891.688,390.506 			"/>
		</g>
		<g>
			<rect x="774.712" y="763.18" fill="#4AE08C" width="115.692" height="2.568"/>
		</g>
		<g>
			<polygon fill="#4AE08C" points="852.18,636.598 849.613,636.598 849.613,453.054 922.984,453.054 922.984,207.433 
				763.574,207.433 763.574,92.085 838.327,92.085 838.327,38.703 924.268,38.703 924.268,41.271 840.894,41.271 840.894,94.652 
				766.142,94.652 766.142,204.866 925.551,204.866 925.551,455.622 852.18,455.622 			"/>
		</g>
		<g>
			<circle fill="#4AE08C" cx="924.268" cy="39.987" r="16.656"/>
		</g>
		<g>
			<circle fill="#4AE08C" cx="1078.674" cy="39.987" r="21.231"/>
		</g>
		<g>
			<circle fill="#4AE08C" cx="850.912" cy="635.01" r="11.83"/>
		</g>
		<g>
			<polygon fill="#4AE08C" points="1107.566,622.985 973.652,622.985 973.652,620.417 1104.998,620.417 1104.998,479.852 
				1004.82,479.852 1004.82,247.044 889.12,247.044 889.12,160.99 957.599,160.99 1003.468,115.121 1003.468,26.118 
				1006.036,26.118 1006.036,116.184 958.662,163.558 891.688,163.558 891.688,244.476 1007.387,244.476 1007.387,477.284 
				1107.566,477.284 			"/>
		</g>
		<g>
			<circle fill="#4AE08C" cx="976.827" cy="621.7" r="12.612"/>
		</g>
		<g>
			<circle fill="#4AE08C" cx="1004.693" cy="30.463" r="7.657"/>
		</g>
		<g>
			<circle fill="#4AE08C" cx="890.405" cy="206.149" r="16.656"/>
		</g>
		<g>
			<circle fill="#4AE08C" cx="800.103" cy="273.142" r="7.657"/>
		</g>
		<g>
			<polygon fill="#4AE08C" points="1083.11,526.678 1040.556,526.678 1040.556,524.111 1080.543,524.111 1080.543,379.134 
				1194.833,379.134 1194.833,286.461 1118.641,286.461 1118.641,222.518 1160.97,222.518 1160.97,72.7 1076.31,72.7 1076.31,40.97 
				1078.878,40.97 1078.878,70.132 1163.537,70.132 1163.537,225.086 1121.209,225.086 1121.209,283.893 1197.401,283.893 
				1197.401,381.702 1083.11,381.702 			"/>
		</g>
		<g>
			<polygon fill="#4AE08C" points="1286.997,773.313 1284.43,773.313 1284.43,624.464 1194.833,624.464 1194.833,412.027 
				1318.29,412.027 1318.29,240.652 1223.478,240.652 1223.478,153.726 1049.844,153.726 1049.844,151.158 1226.046,151.158 
				1226.046,238.084 1320.858,238.084 1320.858,414.595 1197.401,414.595 1197.401,621.897 1286.997,621.897 			"/>
		</g>
		<g>
			<circle fill="#4AE08C" cx="1286.416" cy="768.875" r="11.83"/>
		</g>
		<g>
			<circle fill="#4AE08C" cx="1049.844" cy="152.443" r="10.957"/>
		</g>
		<g>
			<circle fill="#4AE08C" cx="1155.667" cy="670.46" r="10.957"/>
		</g>
		<g>
			<polygon fill="#4AE08C" points="1361.81,671.745 1164.402,671.745 1164.402,669.178 1359.242,669.178 1359.242,563.804 
				1285.132,563.804 1285.132,467.868 1359.242,467.868 1359.242,339.576 1144.649,339.576 1144.649,337.009 1361.81,337.009 
				1361.81,470.436 1287.699,470.436 1287.699,561.236 1361.81,561.236 			"/>
		</g>
		<g>
			<circle fill="#4AE08C" cx="1144.648" cy="339.304" r="21.125"/>
		</g>
		<g>
			<circle fill="#4AE08C" cx="1319.574" cy="338.292" r="13.596"/>
		</g>
		<g>
			<polyline fill="#4AE08C" points="1273.302,138.23 1214.569,138.23 1214.569,46.306 1217.137,46.306 1217.137,135.662 
				1275.869,135.662 			"/>
		</g>
		<g>
			<polygon fill="#4AE08C" points="1337.811,138.23 1274.585,138.23 1274.585,135.662 1335.243,135.662 1335.243,46.306 
				1337.811,46.306 			"/>
		</g>
		<g>
			<circle fill="#4AE08C" cx="1215.853" cy="46.306" r="10.957"/>
		</g>
		<g>
			<circle fill="#4AE08C" cx="1395.681" cy="59.144" r="10.957"/>
		</g>
		<g>
			<circle fill="#4AE08C" cx="1336.527" cy="46.306" r="13.749"/>
		</g>
		<g>
			<polygon fill="#4AE08C" points="1624.118,132.049 1516.786,132.049 1516.786,28.117 1519.354,28.117 1519.354,129.481 
				1621.551,129.481 1621.551,61.755 1696.684,61.755 1696.684,12.781 1699.252,12.781 1699.252,64.322 1624.118,64.322 			"/>
		</g>
		<g>
			<polyline fill="#4AE08C" points="1652.691,197.208 1695.019,197.208 1695.019,261.153 1618.828,261.153 1618.828,353.826 
				1733.115,353.826 1733.115,498.803 1773.102,498.803 1773.102,501.371 1730.548,501.371 1730.548,356.394 1616.26,356.394 
				1616.26,258.585 1692.452,258.585 1692.452,199.775 1650.123,199.775 			"/>
		</g>
		<g>
			<polygon fill="#4AE08C" points="1547.44,292.123 1516.786,292.123 1516.786,233.172 1650.123,233.172 1650.123,199.775 
				1616.26,199.775 1616.26,175.18 1514.028,175.18 1514.028,172.612 1618.828,172.612 1618.828,197.208 1652.691,197.208 
				1652.691,235.74 1519.354,235.74 1519.354,289.555 1547.44,289.555 			"/>
		</g>
		<g>
			<polygon fill="#4AE08C" points="1699.252,381.918 1640.018,381.918 1640.018,379.35 1696.684,379.35 1696.684,298.605 
				1814.844,298.605 1814.844,169.189 1850.344,133.689 1850.344,35.376 1852.912,35.376 1852.912,134.752 1817.411,170.252 
				1817.411,301.172 1699.252,301.172 			"/>
		</g>
		<g>
			<circle fill="#4AE08C" cx="1651.796" cy="196.115" r="7.657"/>
		</g>
		<g>
			<circle fill="#4AE08C" cx="1640.516" cy="381.33" r="10.459"/>
		</g>
		<g>
			<circle fill="#4AE08C" cx="1471.86" cy="290.323" r="9.524"/>
		</g>
		<g>
			<circle fill="#4AE08C" cx="1518.069" cy="26.119" r="16.656"/>
		</g>
		<g>
			<circle fill="#4AE08C" cx="1889.827" cy="239.367" r="16.656"/>
		</g>
		<g>
			<polygon fill="#4AE08C" points="1578.262,637.882 1517.717,637.882 1517.717,635.314 1575.694,635.314 1575.694,561.236 
				1686.416,561.236 1686.416,445.284 1470.576,445.284 1470.576,284.56 1473.144,284.56 1473.144,442.716 1688.984,442.716 
				1688.984,563.804 1578.262,563.804 			"/>
		</g>
		<g>
			<circle fill="#4AE08C" cx="1655.323" cy="562.521" r="7.657"/>
		</g>
		<g>
			<circle fill="#4AE08C" cx="1518.069" cy="636.597" r="7.937"/>
		</g>
		<g>
			<circle fill="#4AE08C" cx="1579.78" cy="742.337" r="7.937"/>
		</g>
		<g>
			<circle fill="#4AE08C" cx="1773.102" cy="500.086" r="10.459"/>
		</g>
		<g>
			<circle fill="#4AE08C" cx="1829.103" cy="739.815" r="11.792"/>
		</g>
		<g>
			<polygon fill="#4AE08C" points="1747.107,813.319 1578.497,813.319 1578.497,739.815 1581.065,739.815 1581.065,810.752 
				1744.539,810.752 1744.539,585.727 1905.2,585.727 1905.2,444.118 1800.097,444.118 1800.097,238.084 1893.009,238.084 
				1893.009,240.652 1802.665,240.652 1802.665,441.55 1907.768,441.55 1907.768,588.294 1747.107,588.294 			"/>
		</g>
		<g>
			<circle fill="#4AE08C" cx="1745.248" cy="739.815" r="10.459"/>
		</g>
		<g>
			<polygon fill="#4AE08C" points="1864.649,645.818 1695.323,645.818 1695.323,643.25 1862.082,643.25 1862.082,362.048 
				1969.877,362.048 1969.877,108.599 1723.228,108.599 1723.228,106.031 1972.445,106.031 1972.445,364.616 1864.649,364.616 			
				"/>
		</g>
		<g>
			<circle fill="#4AE08C" cx="1691.649" cy="644.534" r="9.524"/>
		</g>
		<g>
			<circle fill="#4AE08C" cx="1471.86" cy="290.323" r="9.524"/>
		</g>
		<g>
			<circle fill="#4AE08C" cx="1514.027" cy="173.897" r="11.623"/>
		</g>
		<g>
			<circle fill="#4AE08C" cx="1851.629" cy="39.987" r="9.524"/>
		</g>
		<g>
			<circle fill="#4AE08C" cx="1725.265" cy="105.2" r="11.83"/>
		</g>
		<g>
			<polygon fill="#4AE08C" points="1963.569,707.018 1873.17,707.018 1873.17,704.45 1961.001,704.45 1961.001,494.149 
				2026.499,428.654 2026.499,314.77 1916.316,314.77 1916.316,312.203 2029.066,312.203 2029.066,429.717 1963.569,495.212 			"/>
		</g>
		<g>
			<circle fill="#4AE08C" cx="1916.007" cy="313.486" r="9.524"/>
		</g>
		<g>
			<circle fill="#4AE08C" cx="2076.858" cy="765.618" r="11.845"/>
		</g>
		<g>
			<circle fill="#4AE08C" cx="1924.473" cy="422.836" r="9.524"/>
		</g>
		<g>
			<circle fill="#4AE08C" cx="1873.171" cy="705.734" r="7.657"/>
		</g>
		<g>
			<circle fill="#4AE08C" cx="1543.959" cy="290.839" r="7.657"/>
		</g>
		<g>
			<polygon fill="#4AE08C" points="2087.62,424.118 1925.531,424.118 1925.531,421.551 2085.053,421.551 2085.053,175.18 
				1924.247,175.18 1924.247,-6.579 1805.907,-6.579 1805.907,-9.147 1926.814,-9.147 1926.814,172.612 2087.62,172.612 			"/>
		</g>
		<g>
			<polygon fill="#4AE08C" points="2141.589,640.527 2026.499,640.527 2026.499,545.815 1805.907,545.815 1805.907,543.248 
				2029.066,543.248 2029.066,637.96 2139.021,637.96 2139.021,453.807 2212.036,380.794 2212.036,225.835 2026.499,225.835 
				2026.499,37.811 2029.066,37.811 2029.066,223.268 2214.604,223.268 2214.604,381.857 2141.589,454.87 			"/>
		</g>
		<g>
			<circle fill="#4AE08C" cx="2027.781" cy="37.81" r="14.77"/>
		</g>
		<g>
			<circle fill="#4AE08C" cx="2328.317" cy="702.928" r="14.77"/>
		</g>
		<g>
			<circle fill="#4AE08C" cx="1805.907" cy="-7.862" r="13.693"/>
		</g>
		<g>
			<circle fill="#4AE08C" cx="2140.306" cy="454.338" r="7.657"/>
		</g>
		<g>
			<circle fill="#4AE08C" cx="2340.207" cy="392.961" r="7.657"/>
		</g>
		<g>
			<circle fill="#4AE08C" cx="2367.832" cy="763.457" r="9.856"/>
		</g>
		<g>
			<polygon fill="#4AE08C" points="2078.097,768.874 2075.53,768.874 2075.53,568.894 2270.241,568.894 2270.241,324.293 
				2178.177,324.293 2178.177,282.083 2131.366,282.083 2131.366,92.085 2188.985,92.085 2188.985,94.652 2133.933,94.652 
				2133.933,279.515 2180.745,279.515 2180.745,321.726 2272.809,321.726 2272.809,571.462 2078.097,571.462 			"/>
		</g>
		<g>
			<circle fill="#4AE08C" cx="2188.666" cy="93.37" r="9.524"/>
		</g>
		<g>
			<circle fill="#4AE08C" cx="2188.666" cy="16.225" r="9.524"/>
		</g>
		<g>
			<circle fill="#4AE08C" cx="2213.319" cy="320.893" r="10.459"/>
		</g>
		<g>
			<polygon fill="#4AE08C" points="2214.604,699.362 2017.905,699.362 2017.905,696.795 2212.036,696.795 2212.036,488.344 
				2391.939,488.344 2391.939,169.44 2098.458,169.44 2098.458,-19.47 2101.025,-19.47 2101.025,166.872 2394.506,166.872 
				2394.506,490.912 2214.604,490.912 			"/>
		</g>
		<g>
			<polygon fill="#4AE08C" points="2331.012,705.734 2328.445,705.734 2328.445,553.581 2559.136,553.581 2559.136,381.037 
				2450.541,272.439 2322.801,272.439 2322.801,16.944 2188.666,16.944 2188.666,14.376 2325.368,14.376 2325.368,269.871 
				2451.604,269.871 2561.704,379.974 2561.704,556.149 2331.012,556.149 			"/>
		</g>
		<g>
			<polygon fill="#4AE08C" points="2484.808,765.617 2482.24,765.617 2482.24,393.073 2336.782,393.073 2336.782,390.506 
				2484.808,390.506 			"/>
		</g>
		<g>
			<rect x="2367.832" y="763.18" fill="#4AE08C" width="115.692" height="2.568"/>
		</g>
		<g>
			<circle fill="#4AE08C" cx="2671.793" cy="39.987" r="21.231"/>
		</g>
		<g>
			<polygon fill="#4AE08C" points="2580.753,718.983 2444.031,718.983 2444.031,716.416 2578.186,716.416 2578.186,670.587 
				2641.68,670.587 2641.68,526.984 2393.223,526.984 2393.223,524.417 2644.247,524.417 2644.247,673.154 2580.753,673.154 			"/>
		</g>
		<g>
			<circle fill="#4AE08C" cx="2384.488" cy="525.702" r="16.656"/>
		</g>
		<g>
			<circle fill="#4AE08C" cx="2444.031" cy="717.699" r="7.657"/>
		</g>
		<g>
			<polygon fill="#4AE08C" points="2700.685,622.985 2566.772,622.985 2566.772,620.417 2698.118,620.417 2698.118,479.852 
				2597.939,479.852 2597.939,247.044 2482.24,247.044 2482.24,160.99 2550.719,160.99 2596.588,115.121 2596.588,26.118 
				2599.156,26.118 2599.156,116.184 2551.782,163.558 2484.808,163.558 2484.808,244.476 2600.507,244.476 2600.507,477.284 
				2700.685,477.284 			"/>
		</g>
		<g>
			<circle fill="#4AE08C" cx="2569.946" cy="621.7" r="12.612"/>
		</g>
		<g>
			<circle fill="#4AE08C" cx="2597.812" cy="30.463" r="7.657"/>
		</g>
		<g>
			<circle fill="#4AE08C" cx="2483.524" cy="206.149" r="16.656"/>
		</g>
		<g>
			<circle fill="#4AE08C" cx="2393.222" cy="273.142" r="7.657"/>
		</g>
		<g>
			<polygon fill="#4AE08C" points="2676.23,526.678 2633.676,526.678 2633.676,524.111 2673.662,524.111 2673.662,379.134 
				2787.95,379.134 2787.95,286.461 2711.758,286.461 2711.758,222.518 2754.087,222.518 2754.087,72.7 2669.43,72.7 2669.43,40.97 
				2671.998,40.97 2671.998,70.132 2756.655,70.132 2756.655,225.086 2714.326,225.086 2714.326,283.893 2790.518,283.893 
				2790.518,381.702 2676.23,381.702 			"/>
		</g>
		<g>
			<polygon fill="#4AE08C" points="2880.117,773.313 2877.549,773.313 2877.549,624.464 2787.95,624.464 2787.95,412.027 
				2911.41,412.027 2911.41,240.652 2816.598,240.652 2816.598,153.726 2642.964,153.726 2642.964,151.158 2819.166,151.158 
				2819.166,238.084 2913.978,238.084 2913.978,414.595 2790.518,414.595 2790.518,621.897 2880.117,621.897 			"/>
		</g>
		<g>
			<circle fill="#4AE08C" cx="2879.535" cy="768.875" r="11.83"/>
		</g>
		<g>
			<circle fill="#4AE08C" cx="2642.963" cy="152.443" r="10.957"/>
		</g>
		<g>
			<circle fill="#4AE08C" cx="2748.785" cy="670.46" r="10.957"/>
		</g>
		<g>
			<polygon fill="#4AE08C" points="2954.93,671.745 2757.52,671.745 2757.52,669.178 2952.362,669.178 2952.362,563.804 
				2878.251,563.804 2878.251,467.868 2952.362,467.868 2952.362,339.576 2737.768,339.576 2737.768,337.009 2954.93,337.009 
				2954.93,470.436 2880.819,470.436 2880.819,561.236 2954.93,561.236 			"/>
		</g>
		<g>
			<circle fill="#4AE08C" cx="2737.767" cy="339.304" r="21.125"/>
		</g>
		<g>
			<circle fill="#4AE08C" cx="2912.693" cy="338.292" r="13.596"/>
		</g>
		<g>
			<polygon fill="#4AE08C" points="2868.989,299.848 2866.421,299.848 2866.421,138.23 2807.689,138.23 2807.689,46.306 
				2810.257,46.306 2810.257,135.662 2868.989,135.662 			"/>
		</g>
		<g>
			<polygon fill="#4AE08C" points="2930.931,138.23 2867.705,138.23 2867.705,135.662 2928.363,135.662 2928.363,46.306 
				2930.931,46.306 			"/>
		</g>
		<g>
			<circle fill="#4AE08C" cx="2867.705" cy="299.847" r="10.066"/>
		</g>
		<g>
			<circle fill="#4AE08C" cx="2808.972" cy="46.306" r="10.957"/>
		</g>
		<g>
			<circle fill="#4AE08C" cx="2444.031" cy="28.905" r="10.957"/>
		</g>
		<g>
			<circle fill="#4AE08C" cx="2929.646" cy="46.306" r="13.749"/>
		</g>
		<g>
			<polygon fill="#4AE08C" points="1527.29,525.701 1524.722,525.701 1524.722,382.615 1408.519,382.615 1408.519,209.289 
				1359.242,209.289 1359.242,171.792 1441.984,171.792 1441.984,62.502 1395.681,62.502 1395.681,59.934 1444.551,59.934 
				1444.551,174.36 1361.81,174.36 1361.81,206.721 1411.087,206.721 1411.087,380.047 1527.29,380.047 			"/>
		</g>
		<g>
			<polyline fill="#4AE08C" points="1364.265,781.988 1364.265,705.844 1441.984,628.128 1441.984,501.371 1236.953,501.371 
				1236.953,498.803 1444.551,498.803 1444.551,629.191 1366.832,706.907 1366.832,779.421 			"/>
		</g>
		<g>
			<circle fill="#4AE08C" cx="1243.774" cy="500.086" r="10.066"/>
		</g>
		<g>
			<circle fill="#4AE08C" cx="1525.772" cy="525.395" r="16.656"/>
		</g>
		<polyline fill="none" stroke="#4AE08C" stroke-width="3" stroke-miterlimit="10" points="2484.808,162.397 2444.031,162.397 
			2444.031,24.959 		"/>
		<g>
			<polygon fill="#4AE08C" points="2776.756,1387.001 2884.087,1387.001 2884.087,1490.932 2881.52,1490.932 2881.52,1389.568 
				2779.323,1389.568 2779.323,1457.295 2704.189,1457.295 2704.189,1506.268 2701.622,1506.268 2701.622,1454.727 
				2776.756,1454.727 			"/>
		</g>
		<g>
			<polygon fill="#4AE08C" points="2627.772,1017.679 2670.326,1017.679 2670.326,1162.655 2784.614,1162.655 2784.614,1260.464 
				2708.422,1260.464 2708.422,1319.274 2750.75,1319.274 2750.75,1474.225 2666.094,1474.225 2666.094,1503.39 2663.526,1503.39 
				2663.526,1471.658 2748.183,1471.658 2748.183,1321.842 2705.854,1321.842 2705.854,1257.896 2782.046,1257.896 
				2782.046,1165.223 2667.759,1165.223 2667.759,1020.246 2627.772,1020.246 			"/>
		</g>
		<g>
			<polygon fill="#4AE08C" points="2853.434,1226.927 2884.087,1226.927 2884.087,1285.877 2750.75,1285.877 2750.75,1319.274 
				2784.614,1319.274 2784.614,1343.87 2886.846,1343.87 2886.846,1346.437 2782.046,1346.437 2782.046,1321.842 2748.183,1321.842 
				2748.183,1283.309 2881.52,1283.309 2881.52,1229.494 2853.434,1229.494 			"/>
		</g>
		<g>
			<polygon fill="#4AE08C" points="2701.622,1137.132 2760.853,1137.132 2760.853,1139.699 2704.189,1139.699 2704.189,1220.445 
				2586.028,1220.445 2586.028,1349.86 2550.527,1385.361 2550.527,1483.673 2547.959,1483.673 2547.959,1384.298 2583.46,1348.797 
				2583.46,1217.877 2701.622,1217.877 			"/>
		</g>
		<g>
			<circle fill="#4AE08C" cx="2749.077" cy="1322.934" r="7.657"/>
		</g>
		<g>
			<circle fill="#4AE08C" cx="2760.356" cy="1137.719" r="10.459"/>
		</g>
		<g>
			<circle fill="#4AE08C" cx="2929.013" cy="1228.726" r="9.524"/>
		</g>
		<g>
			<circle fill="#4AE08C" cx="2702.905" cy="1472.743" r="6.319"/>
		</g>
		<g>
			<circle fill="#4AE08C" cx="2882.804" cy="1492.93" r="16.656"/>
		</g>
		<g>
			<circle fill="#4AE08C" cx="2511.046" cy="1279.682" r="16.656"/>
		</g>
		<g>
			<circle fill="#4AE08C" cx="2807.632" cy="1320.558" r="7.657"/>
		</g>
		<g>
			<polygon fill="#4AE08C" points="2822.612,881.167 2883.157,881.167 2883.157,883.735 2825.18,883.735 2825.18,957.813 
				2714.455,957.813 2714.455,1073.766 2930.298,1073.766 2930.298,1234.489 2927.73,1234.489 2927.73,1076.333 2711.887,1076.333 
				2711.887,955.245 2822.612,955.245 			"/>
		</g>
		<g>
			<circle fill="#4AE08C" cx="2745.55" cy="956.528" r="7.657"/>
		</g>
		<g>
			<circle fill="#4AE08C" cx="2882.804" cy="882.452" r="7.937"/>
		</g>
		<g>
			<circle fill="#4AE08C" cx="2821.093" cy="776.713" r="7.937"/>
		</g>
		<g>
			<circle fill="#4AE08C" cx="2627.771" cy="1018.963" r="10.459"/>
		</g>
		<g>
			<circle fill="#4AE08C" cx="2571.77" cy="779.235" r="11.792"/>
		</g>
		<g>
			<polygon fill="#4AE08C" points="2653.764,705.73 2822.376,705.73 2822.376,779.234 2819.809,779.234 2819.809,708.298 
				2656.332,708.298 2656.332,933.323 2495.674,933.323 2495.674,1074.932 2600.774,1074.932 2600.774,1280.965 2507.865,1280.965 
				2507.865,1278.397 2598.207,1278.397 2598.207,1077.499 2493.106,1077.499 2493.106,930.755 2653.764,930.755 			"/>
		</g>
		<g>
			<circle fill="#4AE08C" cx="2655.625" cy="779.235" r="10.459"/>
		</g>
		<g>
			<polygon fill="#4AE08C" points="2536.225,873.231 2705.551,873.231 2705.551,875.799 2538.792,875.799 2538.792,1157.001 
				2430.996,1157.001 2430.996,1410.45 2677.643,1410.45 2677.643,1413.018 2428.429,1413.018 2428.429,1154.433 2536.225,1154.433 
							"/>
		</g>
		<g>
			<circle fill="#4AE08C" cx="2709.224" cy="874.516" r="9.524"/>
		</g>
		<g>
			<circle fill="#4AE08C" cx="2929.013" cy="1228.726" r="9.524"/>
		</g>
		<g>
			<circle fill="#4AE08C" cx="2886.846" cy="1345.153" r="11.623"/>
		</g>
		<g>
			<circle fill="#4AE08C" cx="2549.244" cy="1479.062" r="9.524"/>
		</g>
		<g>
			<circle fill="#4AE08C" cx="2675.608" cy="1413.85" r="11.83"/>
		</g>
		<g>
			<polygon fill="#4AE08C" points="2437.302,812.032 2527.702,812.032 2527.702,814.599 2439.87,814.599 2439.87,1024.9 
				2374.375,1090.395 2374.375,1204.279 2484.558,1204.279 2484.558,1206.847 2371.808,1206.847 2371.808,1089.332 
				2437.302,1023.837 			"/>
		</g>
		<g>
			<circle fill="#4AE08C" cx="2484.866" cy="1205.564" r="9.524"/>
		</g>
		<g>
			<circle fill="#4AE08C" cx="2527.702" cy="813.315" r="7.657"/>
		</g>
		<g>
			<circle fill="#4AE08C" cx="2856.914" cy="1228.21" r="7.657"/>
		</g>
		<g>
			<polygon fill="#4AE08C" points="2259.283,878.522 2374.375,878.522 2374.375,973.234 2594.967,973.234 2594.967,975.802 
				2371.808,975.802 2371.808,881.09 2261.85,881.09 2261.85,1065.243 2188.838,1138.255 2188.838,1293.214 2374.375,1293.214 
				2374.375,1481.239 2371.808,1481.239 2371.808,1295.782 2186.27,1295.782 2186.27,1137.192 2259.283,1064.18 			"/>
		</g>
		<g>
			<circle fill="#4AE08C" cx="2373.092" cy="1481.24" r="14.77"/>
		</g>
		<g>
			<circle fill="#4AE08C" cx="2072.556" cy="816.121" r="14.77"/>
		</g>
		<g>
			<circle fill="#4AE08C" cx="2594.966" cy="1526.912" r="13.693"/>
		</g>
		<g>
			<circle fill="#4AE08C" cx="2260.567" cy="1064.711" r="7.657"/>
		</g>
		<g>
			<circle fill="#4AE08C" cx="2060.666" cy="1126.088" r="7.657"/>
		</g>
		<g>
			<polygon fill="#4AE08C" points="2322.777,750.175 2325.344,750.175 2325.344,950.155 2130.632,950.155 2130.632,1194.756 
				2222.696,1194.756 2222.696,1236.967 2269.508,1236.967 2269.508,1426.965 2211.889,1426.965 2211.889,1424.397 
				2266.94,1424.397 2266.94,1239.534 2220.129,1239.534 2220.129,1197.323 2128.064,1197.323 2128.064,947.588 2322.777,947.588 
							"/>
		</g>
		<g>
			<circle fill="#4AE08C" cx="2212.207" cy="1425.68" r="9.524"/>
		</g>
		<g>
			<circle fill="#4AE08C" cx="2212.207" cy="1502.824" r="9.524"/>
		</g>
		<g>
			<circle fill="#4AE08C" cx="2187.554" cy="1198.156" r="10.459"/>
		</g>
		<g>
			<polygon fill="#4AE08C" points="2186.27,819.687 2382.968,819.687 2382.968,822.255 2188.838,822.255 2188.838,1030.705 
				2008.935,1030.705 2008.935,1349.609 2302.416,1349.609 2302.416,1538.519 2299.848,1538.519 2299.848,1352.177 
				2006.367,1352.177 2006.367,1028.137 2186.27,1028.137 			"/>
		</g>
		<g>
			<polygon fill="#4AE08C" points="2069.861,813.315 2072.429,813.315 2072.429,965.468 1841.735,965.468 1841.735,1138.012 
				1950.333,1246.61 2078.073,1246.61 2078.073,1502.106 2212.208,1502.106 2212.208,1504.673 2075.506,1504.673 2075.506,1249.178 
				1949.27,1249.178 1839.167,1139.075 1839.167,962.901 2069.861,962.901 			"/>
		</g>
		<g>
			<polygon fill="#4AE08C" points="1916.066,753.432 1918.634,753.432 1918.634,1125.976 2064.089,1125.976 2064.089,1128.544 
				1916.066,1128.544 			"/>
		</g>
		<g>
			<polygon fill="#4AE08C" points="1955.574,882.451 1958.141,882.451 1958.141,1065.995 1884.77,1065.995 1884.77,1311.616 
				2044.18,1311.616 2044.18,1426.965 1969.427,1426.965 1969.427,1480.346 1883.487,1480.346 1883.487,1477.778 1966.86,1477.778 
				1966.86,1424.397 2041.612,1424.397 2041.612,1314.184 1882.203,1314.184 1882.203,1063.427 1955.574,1063.427 			"/>
		</g>
		<g>
			<circle fill="#4AE08C" cx="1883.486" cy="1479.062" r="16.656"/>
		</g>
		<g>
			<circle fill="#4AE08C" cx="1729.08" cy="1479.062" r="21.231"/>
		</g>
		<g>
			<circle fill="#4AE08C" cx="1956.842" cy="884.04" r="11.83"/>
		</g>
		<g>
			<polygon fill="#4AE08C" points="1820.12,800.066 1956.842,800.066 1956.842,802.634 1822.688,802.634 1822.688,848.463 
				1759.194,848.463 1759.194,992.065 2007.651,992.065 2007.651,994.633 1756.626,994.633 1756.626,845.895 1820.12,845.895 			"/>
		</g>
		<g>
			<circle fill="#4AE08C" cx="2016.385" cy="993.348" r="16.656"/>
		</g>
		<g>
			<circle fill="#4AE08C" cx="1956.842" cy="801.351" r="7.657"/>
		</g>
		<g>
			<polygon fill="#4AE08C" points="1700.188,896.064 1834.102,896.064 1834.102,898.632 1702.756,898.632 1702.756,1039.198 
				1802.934,1039.198 1802.934,1272.006 1918.634,1272.006 1918.634,1358.059 1850.155,1358.059 1804.286,1403.928 
				1804.286,1492.931 1801.718,1492.931 1801.718,1402.865 1849.092,1355.492 1916.066,1355.492 1916.066,1274.573 
				1800.367,1274.573 1800.367,1041.766 1700.188,1041.766 			"/>
		</g>
		<g>
			<circle fill="#4AE08C" cx="1830.927" cy="897.349" r="12.612"/>
		</g>
		<g>
			<circle fill="#4AE08C" cx="1803.061" cy="1488.586" r="7.657"/>
		</g>
		<g>
			<circle fill="#4AE08C" cx="1917.349" cy="1312.901" r="16.656"/>
		</g>
		<g>
			<circle fill="#4AE08C" cx="2007.651" cy="1245.908" r="7.657"/>
		</g>
		<g>
			<polygon fill="#4AE08C" points="1724.644,992.371 1767.198,992.371 1767.198,994.939 1727.211,994.939 1727.211,1139.915 
				1612.921,1139.915 1612.921,1232.589 1689.113,1232.589 1689.113,1296.531 1646.784,1296.531 1646.784,1446.35 1731.444,1446.35 
				1731.444,1478.079 1728.876,1478.079 1728.876,1448.917 1644.217,1448.917 1644.217,1293.964 1686.545,1293.964 
				1686.545,1235.156 1610.354,1235.156 1610.354,1137.348 1724.644,1137.348 			"/>
		</g>
		<g>
			<polygon fill="#4AE08C" points="1520.757,745.737 1523.324,745.737 1523.324,894.585 1612.921,894.585 1612.921,1107.022 
				1489.464,1107.022 1489.464,1278.397 1584.276,1278.397 1584.276,1365.324 1757.91,1365.324 1757.91,1367.891 1581.708,1367.891 
				1581.708,1280.965 1486.896,1280.965 1486.896,1104.455 1610.354,1104.455 1610.354,897.153 1520.757,897.153 			"/>
		</g>
		<g>
			<circle fill="#4AE08C" cx="1757.91" cy="1366.606" r="10.957"/>
		</g>
		<g>
			<circle fill="#4AE08C" cx="1652.088" cy="848.589" r="10.957"/>
		</g>
		<g>
			<polygon fill="#4AE08C" points="1445.944,847.304 1643.352,847.304 1643.352,849.872 1448.512,849.872 1448.512,955.245 
				1522.622,955.245 1522.622,1051.181 1448.512,1051.181 1448.512,1179.473 1663.106,1179.473 1663.106,1182.041 
				1445.944,1182.041 1445.944,1048.613 1520.055,1048.613 1520.055,957.813 1445.944,957.813 			"/>
		</g>
		<g>
			<circle fill="#4AE08C" cx="1663.106" cy="1179.746" r="21.125"/>
		</g>
		<g>
			<circle fill="#4AE08C" cx="1488.18" cy="1180.757" r="13.596"/>
		</g>
		<g>
			<polyline fill="#4AE08C" points="1534.453,1380.82 1593.185,1380.82 1593.185,1472.743 1590.617,1472.743 1590.617,1383.387 
				1531.885,1383.387 			"/>
		</g>
		<g>
			<polygon fill="#4AE08C" points="1469.943,1380.82 1533.169,1380.82 1533.169,1383.387 1472.511,1383.387 1472.511,1472.743 
				1469.943,1472.743 			"/>
		</g>
		<g>
			<circle fill="#4AE08C" cx="1591.901" cy="1472.743" r="10.957"/>
		</g>
		<g>
			<circle fill="#4AE08C" cx="1412.073" cy="1459.905" r="10.957"/>
		</g>
		<g>
			<circle fill="#4AE08C" cx="1471.227" cy="1472.743" r="13.749"/>
		</g>
		<g>
			<polygon fill="#4AE08C" points="1183.636,1387.001 1290.968,1387.001 1290.968,1490.932 1288.4,1490.932 1288.4,1389.568 
				1186.203,1389.568 1186.203,1457.295 1111.07,1457.295 1111.07,1506.268 1108.502,1506.268 1108.502,1454.727 1183.636,1454.727 
							"/>
		</g>
		<g>
			<polyline fill="#4AE08C" points="1155.063,1321.842 1112.735,1321.842 1112.735,1257.896 1188.927,1257.896 1188.927,1165.223 
				1074.639,1165.223 1074.639,1020.246 1034.652,1020.246 1034.652,1017.679 1077.207,1017.679 1077.207,1162.655 
				1191.494,1162.655 1191.494,1260.464 1115.302,1260.464 1115.302,1319.274 1157.631,1319.274 			"/>
		</g>
		<g>
			<polygon fill="#4AE08C" points="1260.314,1226.927 1290.968,1226.927 1290.968,1285.877 1157.631,1285.877 1157.631,1319.274 
				1191.494,1319.274 1191.494,1343.87 1293.726,1343.87 1293.726,1346.437 1188.927,1346.437 1188.927,1321.842 1155.063,1321.842 
				1155.063,1283.309 1288.4,1283.309 1288.4,1229.494 1260.314,1229.494 			"/>
		</g>
		<g>
			<circle fill="#4AE08C" cx="1155.958" cy="1322.934" r="7.657"/>
		</g>
		<g>
			<circle fill="#4AE08C" cx="1335.894" cy="1228.726" r="9.524"/>
		</g>
		<g>
			<circle fill="#4AE08C" cx="1289.685" cy="1492.93" r="16.656"/>
		</g>
		<g>
			<circle fill="#4AE08C" cx="917.927" cy="1279.682" r="16.656"/>
		</g>
		<g>
			<polygon fill="#4AE08C" points="1229.492,881.167 1290.038,881.167 1290.038,883.735 1232.06,883.735 1232.06,957.813 
				1121.338,957.813 1121.338,1073.766 1337.178,1073.766 1337.178,1234.489 1334.61,1234.489 1334.61,1076.333 1118.77,1076.333 
				1118.77,955.245 1229.492,955.245 			"/>
		</g>
		<g>
			<circle fill="#4AE08C" cx="1152.431" cy="956.528" r="7.657"/>
		</g>
		<g>
			<circle fill="#4AE08C" cx="1289.685" cy="882.452" r="7.937"/>
		</g>
		<g>
			<circle fill="#4AE08C" cx="1227.974" cy="776.713" r="7.937"/>
		</g>
		<g>
			<circle fill="#4AE08C" cx="1034.652" cy="1018.963" r="10.459"/>
		</g>
		<g>
			<polygon fill="#4AE08C" points="1060.647,705.73 1229.257,705.73 1229.257,779.234 1226.689,779.234 1226.689,708.298 
				1063.215,708.298 1063.215,933.323 902.554,933.323 902.554,1074.932 1007.657,1074.932 1007.657,1280.965 914.745,1280.965 
				914.745,1278.397 1005.089,1278.397 1005.089,1077.499 899.987,1077.499 899.987,930.755 1060.647,930.755 			"/>
		</g>
		<g>
			<circle fill="#4AE08C" cx="1062.506" cy="779.235" r="10.459"/>
		</g>
		<g>
			<polygon fill="#4AE08C" points="943.105,873.231 1112.431,873.231 1112.431,875.799 945.672,875.799 945.672,1157.001 
				837.877,1157.001 837.877,1410.45 1084.526,1410.45 1084.526,1413.018 835.309,1413.018 835.309,1154.433 943.105,1154.433 			
				"/>
		</g>
		<g>
			<circle fill="#4AE08C" cx="1116.105" cy="874.516" r="9.524"/>
		</g>
		<g>
			<circle fill="#4AE08C" cx="1335.894" cy="1228.726" r="9.524"/>
		</g>
		<g>
			<circle fill="#4AE08C" cx="1293.727" cy="1345.153" r="11.623"/>
		</g>
		<g>
			<circle fill="#4AE08C" cx="956.125" cy="1479.062" r="9.524"/>
		</g>
		<g>
			<circle fill="#4AE08C" cx="1082.489" cy="1413.85" r="11.83"/>
		</g>
		<g>
			<polygon fill="#4AE08C" points="844.185,812.032 934.584,812.032 934.584,814.599 846.753,814.599 846.753,1024.9 
				781.256,1090.395 781.256,1204.279 891.439,1204.279 891.439,1206.847 778.688,1206.847 778.688,1089.332 844.185,1023.837 			
				"/>
		</g>
		<g>
			<circle fill="#4AE08C" cx="891.747" cy="1205.564" r="9.524"/>
		</g>
		<g>
			<circle fill="#4AE08C" cx="883.281" cy="1096.214" r="9.524"/>
		</g>
		<g>
			<circle fill="#4AE08C" cx="934.584" cy="813.315" r="7.657"/>
		</g>
		<g>
			<circle fill="#4AE08C" cx="1263.795" cy="1228.21" r="7.657"/>
		</g>
		<g>
			<polygon fill="#4AE08C" points="720.134,1094.931 882.224,1094.931 882.224,1097.499 722.701,1097.499 722.701,1343.87 
				883.507,1343.87 883.507,1525.628 1001.847,1525.628 1001.847,1528.196 880.94,1528.196 880.94,1346.437 720.134,1346.437 			"/>
		</g>
		<g>
			<polygon fill="#4AE08C" points="666.165,878.522 781.256,878.522 781.256,973.234 1001.847,973.234 1001.847,975.802 
				778.688,975.802 778.688,881.09 668.733,881.09 668.733,1065.243 595.718,1138.255 595.718,1293.214 781.256,1293.214 
				781.256,1481.239 778.688,1481.239 778.688,1295.782 593.151,1295.782 593.151,1137.192 666.165,1064.18 			"/>
		</g>
		<g>
			<circle fill="#4AE08C" cx="779.973" cy="1481.24" r="14.77"/>
		</g>
		<g>
			<circle fill="#4AE08C" cx="479.437" cy="816.121" r="14.77"/>
		</g>
		<g>
			<circle fill="#4AE08C" cx="1001.847" cy="1526.912" r="13.693"/>
		</g>
		<g>
			<circle fill="#4AE08C" cx="667.448" cy="1064.711" r="7.657"/>
		</g>
		<g>
			<circle fill="#4AE08C" cx="467.547" cy="1126.088" r="7.657"/>
		</g>
		<g>
			<polygon fill="#4AE08C" points="729.657,750.175 732.225,750.175 732.225,950.155 537.513,950.155 537.513,1194.756 
				629.577,1194.756 629.577,1236.967 676.388,1236.967 676.388,1426.965 618.769,1426.965 618.769,1424.397 673.821,1424.397 
				673.821,1239.534 627.009,1239.534 627.009,1197.323 534.945,1197.323 534.945,947.588 729.657,947.588 			"/>
		</g>
		<g>
			<circle fill="#4AE08C" cx="619.088" cy="1425.68" r="9.524"/>
		</g>
		<g>
			<circle fill="#4AE08C" cx="619.088" cy="1502.824" r="9.524"/>
		</g>
		<g>
			<circle fill="#4AE08C" cx="594.436" cy="1198.156" r="10.459"/>
		</g>
		<g>
			<polygon fill="#4AE08C" points="593.151,819.687 789.849,819.687 789.849,822.255 595.718,822.255 595.718,1030.705 
				415.815,1030.705 415.815,1349.609 709.296,1349.609 709.296,1538.519 706.729,1538.519 706.729,1352.177 413.248,1352.177 
				413.248,1028.137 593.151,1028.137 			"/>
		</g>
		<g>
			<polygon fill="#4AE08C" points="476.742,813.315 479.309,813.315 479.309,965.468 248.618,965.468 248.618,1138.012 
				357.213,1246.61 484.954,1246.61 484.954,1502.106 619.088,1502.106 619.088,1504.673 482.386,1504.673 482.386,1249.178 
				356.15,1249.178 246.05,1139.075 246.05,962.901 476.742,962.901 			"/>
		</g>
		<g>
			<polygon fill="#4AE08C" points="322.946,753.432 325.514,753.432 325.514,1125.976 470.972,1125.976 470.972,1128.544 
				322.946,1128.544 			"/>
		</g>
		<g>
			<circle fill="#4AE08C" cx="135.961" cy="1479.062" r="21.231"/>
		</g>
		<g>
			<polygon fill="#4AE08C" points="227.001,800.066 363.723,800.066 363.723,802.634 229.568,802.634 229.568,848.463 
				166.074,848.463 166.074,992.065 414.531,992.065 414.531,994.633 163.507,994.633 163.507,845.895 227.001,845.895 			"/>
		</g>
		<g>
			<circle fill="#4AE08C" cx="423.266" cy="993.348" r="16.656"/>
		</g>
		<g>
			<circle fill="#4AE08C" cx="363.723" cy="801.351" r="7.657"/>
		</g>
		<g>
			<polygon fill="#4AE08C" points="107.069,896.064 240.982,896.064 240.982,898.632 109.636,898.632 109.636,1039.198 
				209.815,1039.198 209.815,1272.006 325.514,1272.006 325.514,1358.059 257.035,1358.059 211.166,1403.928 211.166,1492.931 
				208.598,1492.931 208.598,1402.865 255.972,1355.492 322.946,1355.492 322.946,1274.573 207.247,1274.573 207.247,1041.766 
				107.069,1041.766 			"/>
		</g>
		<g>
			<circle fill="#4AE08C" cx="237.808" cy="897.349" r="12.612"/>
		</g>
		<g>
			<circle fill="#4AE08C" cx="209.942" cy="1488.586" r="7.657"/>
		</g>
		<g>
			<circle fill="#4AE08C" cx="324.23" cy="1312.901" r="16.656"/>
		</g>
		<g>
			<circle fill="#4AE08C" cx="414.532" cy="1245.908" r="7.657"/>
		</g>
		<g>
			<polygon fill="#4AE08C" points="131.524,992.371 174.078,992.371 174.078,994.939 134.092,994.939 134.092,1139.915 
				19.804,1139.915 19.804,1232.589 95.996,1232.589 95.996,1296.531 53.667,1296.531 53.667,1446.35 138.324,1446.35 
				138.324,1478.079 135.757,1478.079 135.757,1448.917 51.1,1448.917 51.1,1293.964 93.428,1293.964 93.428,1235.156 
				17.236,1235.156 17.236,1137.348 131.524,1137.348 			"/>
		</g>
		<g>
			<polygon fill="#4AE08C" points="-72.363,705.737 -69.795,705.737 -69.795,854.585 19.804,854.585 19.804,1067.022 
				-103.656,1067.022 -103.656,1238.397 -8.844,1238.397 -8.844,1325.324 164.791,1325.324 164.791,1327.891 -11.411,1327.891 
				-11.411,1240.965 -106.224,1240.965 -106.224,1064.455 17.236,1064.455 17.236,857.153 -72.363,857.153 			"/>
		</g>
		<g>
			<circle fill="#4AE08C" cx="164.791" cy="1366.606" r="10.957"/>
		</g>
		<g>
			<circle fill="#4AE08C" cx="-104.939" cy="1180.757" r="13.596"/>
		</g>
		<g>
			<polygon fill="#4AE08C" points="-61.235,1219.201 -58.667,1219.201 -58.667,1380.82 0.065,1380.82 0.065,1472.743 
				-2.502,1472.743 -2.502,1383.387 -61.235,1383.387 			"/>
		</g>
		<g>
			<polygon fill="#4AE08C" points="-123.177,1380.82 -59.951,1380.82 -59.951,1383.387 -120.609,1383.387 -120.609,1472.743 
				-123.177,1472.743 			"/>
		</g>
		<g>
			<circle fill="#4AE08C" cx="-59.951" cy="1219.202" r="10.066"/>
		</g>
		<g>
			<circle fill="#4AE08C" cx="-1.218" cy="1472.743" r="10.957"/>
		</g>
		<g>
			<circle fill="#4AE08C" cx="363.723" cy="1490.144" r="10.957"/>
		</g>
		<g>
			<circle fill="#4AE08C" cx="-121.892" cy="1472.743" r="13.749"/>
		</g>
		<g>
			<polygon fill="#4AE08C" points="1280.464,993.349 1283.032,993.349 1283.032,1136.435 1399.235,1136.435 1399.235,1309.761 
				1448.512,1309.761 1448.512,1347.257 1365.771,1347.257 1365.771,1456.548 1412.073,1456.548 1412.073,1459.115 
				1363.203,1459.115 1363.203,1344.69 1445.944,1344.69 1445.944,1312.328 1396.667,1312.328 1396.667,1139.002 1280.464,1139.002 
							"/>
		</g>
		<g>
			<polygon fill="#4AE08C" points="1297.62,737.061 1443.489,737.061 1443.489,813.205 1365.771,890.921 1365.771,1017.679 
				1570.801,1017.679 1570.801,1020.246 1363.203,1020.246 1363.203,889.858 1440.922,812.142 1440.922,739.629 1297.62,739.629 			
				"/>
		</g>
		<g>
			<circle fill="#4AE08C" cx="1563.98" cy="1018.963" r="10.066"/>
		</g>
		<g>
			<circle fill="#4AE08C" cx="1281.982" cy="993.654" r="16.656"/>
		</g>
		<polyline fill="none" stroke="#4AE08C" stroke-width="3" stroke-miterlimit="10" points="322.946,1356.652 363.723,1356.652 
			363.723,1494.09 		"/>
	</g>
	<g>
		<path fill="#FFFFFF" d="M650.47,1302.163c0.116-1.261,0.23-1.964,0.337-2.429C650.694,1299.661,650.574,1300.232,650.47,1302.163z
			"/>
	</g>
	<g>
		<polygon fill="#FFFFFF" points="652.43,1294.796 652.392,1296.019 653.403,1295.881 		"/>
	</g>
	<g>
		<path fill="#FFFFFF" d="M638.808,1288.878l0.035,1.802C638.844,1289.828,638.83,1289.279,638.808,1288.878z"/>
	</g>
	<g>
		<path fill="#FFFFFF" d="M639.323,1275.859l-0.167-0.326C639.232,1276.14,639.295,1276.39,639.323,1275.859z"/>
	</g>
	<g>
		<path fill="#FFFFFF" d="M672.293,1201.535c0.244,0.039,0.499,0.08,0.751,0.121c0.676-0.137,1.311-0.265,1.882-0.381
			C674.134,1201.354,673.236,1201.442,672.293,1201.535z"/>
	</g>
	<g>
		<path fill="#FFFFFF" d="M670.444,1203.182l-3.455-0.257C667.765,1203.015,668.877,1203.1,670.444,1203.182z"/>
	</g>
	<g>
		<path fill="#FFFFFF" d="M634.781,1283.596c0.03,1.103,0.094,1.576,0.184,1.547C634.94,1284.008,634.888,1283.365,634.781,1283.596
			z"/>
	</g>
	<g>
		<path fill="#FFFFFF" d="M671.409,1287.064c0.005,0.078,0.008,0.122,0.012,0.193c0.007-0.079,0.017-0.178,0.023-0.249
			L671.409,1287.064z"/>
	</g>
	<g>
		<path fill="#FFFFFF" d="M671.34,1280.994c0.398,2.598,0.282,4.063,0.103,6.014l1.222-1.961L671.34,1280.994z"/>
	</g>
	<g>
		<path fill="#FFFFFF" d="M670.693,1202.991c-0.349-0.075-0.445-0.157-0.527-0.24
			C669.681,1202.825,669.671,1202.911,670.693,1202.991z"/>
	</g>
	<g>
		<path fill="#FFFFFF" d="M641.411,1247.055l-0.133-0.265c-0.175,0.521-0.216,1.317-0.3,2.912L641.411,1247.055z"/>
	</g>
	<g>
		<polygon fill="#FFFFFF" points="639.229,1293.187 639.271,1292.393 638.677,1293.857 		"/>
	</g>
	<g>
		<path fill="#FFFFFF" d="M1042.612,1302.163c0.116-1.261,0.23-1.964,0.337-2.429
			C1042.836,1299.661,1042.716,1300.232,1042.612,1302.163z"/>
	</g>
	<g>
		<polygon fill="#FFFFFF" points="1044.572,1294.796 1044.534,1296.019 1045.545,1295.881 		"/>
	</g>
	<g>
		<path fill="#FFFFFF" d="M1030.95,1288.878l0.035,1.802C1030.985,1289.828,1030.971,1289.279,1030.95,1288.878z"/>
	</g>
	<g>
		<path fill="#FFFFFF" d="M1031.464,1275.859l-0.167-0.326C1031.374,1276.14,1031.437,1276.39,1031.464,1275.859z"/>
	</g>
	<g>
		<path fill="#FFFFFF" d="M1064.435,1201.535c0.244,0.039,0.499,0.08,0.751,0.121c0.676-0.137,1.311-0.265,1.882-0.381
			C1066.276,1201.354,1065.378,1201.442,1064.435,1201.535z"/>
	</g>
	<g>
		<path fill="#FFFFFF" d="M1062.586,1203.182l-3.455-0.257C1059.907,1203.015,1061.018,1203.1,1062.586,1203.182z"/>
	</g>
	<g>
		<path fill="#FFFFFF" d="M1026.923,1283.596c0.03,1.103,0.094,1.576,0.184,1.547
			C1027.082,1284.008,1027.03,1283.365,1026.923,1283.596z"/>
	</g>
	<g>
		<path fill="#FFFFFF" d="M1063.55,1287.064c0.005,0.078,0.008,0.122,0.012,0.193c0.007-0.079,0.017-0.178,0.023-0.249
			L1063.55,1287.064z"/>
	</g>
	<g>
		<path fill="#FFFFFF" d="M1063.482,1280.994c0.398,2.598,0.282,4.063,0.103,6.014l1.222-1.961L1063.482,1280.994z"/>
	</g>
	<g>
		<path fill="#FFFFFF" d="M1062.835,1202.991c-0.349-0.075-0.445-0.157-0.527-0.24
			C1061.823,1202.825,1061.813,1202.911,1062.835,1202.991z"/>
	</g>
	<g>
		<path fill="#FFFFFF" d="M1033.553,1247.055l-0.133-0.265c-0.175,0.521-0.216,1.317-0.301,2.912L1033.553,1247.055z"/>
	</g>
	<g>
		<polygon fill="#FFFFFF" points="1031.371,1293.187 1031.412,1292.393 1030.819,1293.857 		"/>
	</g>
</g>
</svg>
